<svg xmlns="http://www.w3.org/2000/svg" xmlns:xlink="http://www.w3.org/1999/xlink" width="2000" zoomAndPan="magnify" viewBox="0 0 1500 749.999995" height="1000" preserveAspectRatio="xMidYMid meet" version="1.0"><defs><g/><clipPath id="78c70e7da0"><path d="M 124.109375 229 L 285.359375 229 L 285.359375 623.972656 L 124.109375 623.972656 Z M 124.109375 229 " clip-rule="nonzero"/></clipPath><clipPath id="1780f97330"><path d="M 124.109375 75.722656 L 285.359375 75.722656 L 285.359375 237 L 124.109375 237 Z M 124.109375 75.722656 " clip-rule="nonzero"/></clipPath><clipPath id="0d5768a74d"><rect x="0" width="734" y="0" height="216"/></clipPath><clipPath id="d52aab1c31"><rect x="0" width="481" y="0" height="88"/></clipPath></defs><path stroke-linecap="round" transform="matrix(0, 0.75, -0.75, 0, 392.236157, 53.869601)" fill="none" stroke-linejoin="miter" d="M 2.00199 2.002377 L 826.173905 2.002377 " stroke="#191919" stroke-width="4" stroke-opacity="1" stroke-miterlimit="4"/><g clip-path="url(#78c70e7da0)"><path fill="#25aae1" d="M 285.238281 229.953125 L 285.238281 543.722656 C 285.238281 588.203125 249.171875 624.265625 204.691406 624.265625 C 160.199219 624.265625 124.132812 588.203125 124.132812 543.722656 L 124.132812 229.953125 C 144.144531 251.765625 172.847656 265.460938 204.691406 265.460938 C 236.519531 265.460938 265.242188 251.765625 285.238281 229.953125 " fill-opacity="1" fill-rule="evenodd"/></g><g clip-path="url(#1780f97330)"><path fill="#191919" d="M 285.238281 156.285156 C 285.238281 200.765625 249.171875 236.828125 204.691406 236.828125 C 160.199219 236.828125 124.132812 200.765625 124.132812 156.285156 C 124.132812 111.785156 160.195312 75.722656 204.691406 75.722656 C 249.175781 75.722656 285.234375 111.789062 285.238281 156.285156 " fill-opacity="1" fill-rule="evenodd"/></g><g transform="matrix(1, 0, 0, 1, 496, 217)"><g clip-path="url(#0d5768a74d)"><g fill="#191919" fill-opacity="1"><g transform="translate(0.487676, 160.780718)"><g><path d="M 60.40625 1.078125 C 50.289062 1.078125 41.015625 -1.269531 32.578125 -5.96875 C 24.148438 -10.675781 17.457031 -17.242188 12.5 -25.671875 C 7.539062 -34.109375 5.0625 -43.59375 5.0625 -54.125 C 5.0625 -64.644531 7.539062 -74.09375 12.5 -82.46875 C 17.457031 -90.851562 24.148438 -97.394531 32.578125 -102.09375 C 41.015625 -106.800781 50.289062 -109.15625 60.40625 -109.15625 C 70.519531 -109.15625 79.789062 -106.800781 88.21875 -102.09375 C 96.65625 -97.394531 103.300781 -90.851562 108.15625 -82.46875 C 113.007812 -74.09375 115.4375 -64.644531 115.4375 -54.125 C 115.4375 -43.59375 112.984375 -34.109375 108.078125 -25.671875 C 103.171875 -17.242188 96.523438 -10.675781 88.140625 -5.96875 C 79.765625 -1.269531 70.519531 1.078125 60.40625 1.078125 Z M 60.40625 -22.84375 C 68.988281 -22.84375 75.859375 -25.703125 81.015625 -31.421875 C 86.179688 -37.148438 88.765625 -44.71875 88.765625 -54.125 C 88.765625 -63.625 86.179688 -71.207031 81.015625 -76.875 C 75.859375 -82.550781 68.988281 -85.390625 60.40625 -85.390625 C 51.71875 -85.390625 44.789062 -82.578125 39.625 -76.953125 C 34.46875 -71.335938 31.890625 -63.726562 31.890625 -54.125 C 31.890625 -44.613281 34.46875 -37.019531 39.625 -31.34375 C 44.789062 -25.675781 51.71875 -22.84375 60.40625 -22.84375 Z M 60.40625 -22.84375 "/></g></g></g><g fill="#191919" fill-opacity="1"><g transform="translate(132.028595, 160.780718)"><g><path d="M 105.78125 0 L 79.5625 0 L 35.71875 -66.390625 L 35.71875 0 L 9.5 0 L 9.5 -107.625 L 35.71875 -107.625 L 79.5625 -40.9375 L 79.5625 -107.625 L 105.78125 -107.625 Z M 105.78125 0 "/></g></g></g><g fill="#191919" fill-opacity="1"><g transform="translate(258.356972, 160.780718)"><g><path d="M 35.71875 -86.625 L 35.71875 -64.84375 L 70.828125 -64.84375 L 70.828125 -44.609375 L 35.71875 -44.609375 L 35.71875 -21 L 75.4375 -21 L 75.4375 0 L 9.5 0 L 9.5 -107.625 L 75.4375 -107.625 L 75.4375 -86.625 Z M 35.71875 -86.625 "/></g></g></g><g fill="#191919" fill-opacity="1"><g transform="translate(352.336961, 160.780718)"><g/></g></g><g fill="#25aae1" fill-opacity="1"><g transform="translate(395.885575, 160.780718)"><g><path d="M 86.921875 -107.625 L 86.921875 -86.625 L 58.40625 -86.625 L 58.40625 0 L 32.203125 0 L 32.203125 -86.625 L 3.671875 -86.625 L 3.671875 -107.625 Z M 86.921875 -107.625 "/></g></g></g><g fill="#25aae1" fill-opacity="1"><g transform="translate(497.531067, 160.780718)"><g><path d="M 76.5 -19.015625 L 36.328125 -19.015625 L 29.890625 0 L 2.453125 0 L 41.390625 -107.625 L 71.75 -107.625 L 110.6875 0 L 82.9375 0 Z M 69.75 -39.25 L 56.421875 -78.65625 L 43.234375 -39.25 Z M 69.75 -39.25 "/></g></g></g><g fill="#25aae1" fill-opacity="1"><g transform="translate(621.559818, 160.780718)"><g><path d="M 74.65625 -55.1875 C 80.894531 -53.863281 85.90625 -50.773438 89.6875 -45.921875 C 93.46875 -41.066406 95.359375 -35.519531 95.359375 -29.28125 C 95.359375 -20.289062 92.210938 -13.160156 85.921875 -7.890625 C 79.640625 -2.628906 70.878906 0 59.640625 0 L 9.5 0 L 9.5 -107.625 L 57.953125 -107.625 C 68.890625 -107.625 77.445312 -105.117188 83.625 -100.109375 C 89.8125 -95.097656 92.90625 -88.300781 92.90625 -79.71875 C 92.90625 -73.382812 91.242188 -68.117188 87.921875 -63.921875 C 84.597656 -59.734375 80.175781 -56.820312 74.65625 -55.1875 Z M 35.71875 -64.078125 L 52.890625 -64.078125 C 57.179688 -64.078125 60.476562 -65.019531 62.78125 -66.90625 C 65.082031 -68.800781 66.234375 -71.59375 66.234375 -75.28125 C 66.234375 -78.957031 65.082031 -81.765625 62.78125 -83.703125 C 60.476562 -85.648438 57.179688 -86.625 52.890625 -86.625 L 35.71875 -86.625 Z M 55.046875 -21.15625 C 59.429688 -21.15625 62.828125 -22.148438 65.234375 -24.140625 C 67.640625 -26.140625 68.84375 -29.03125 68.84375 -32.8125 C 68.84375 -36.59375 67.585938 -39.554688 65.078125 -41.703125 C 62.578125 -43.847656 59.128906 -44.921875 54.734375 -44.921875 L 35.71875 -44.921875 L 35.71875 -21.15625 Z M 55.046875 -21.15625 "/></g></g></g></g></g><g transform="matrix(1, 0, 0, 1, 497, 386)"><g clip-path="url(#d52aab1c31)"><g fill="#191919" fill-opacity="1"><g transform="translate(0.112579, 64.485063)"><g><path d="M 10.234375 -37.96875 L 10.234375 -23.765625 L 25.71875 -23.765625 L 25.71875 -19.1875 L 10.234375 -19.1875 L 10.234375 -4.5625 L 27.546875 -4.5625 L 27.546875 0 L 4.6875 0 L 4.6875 -42.53125 L 27.546875 -42.53125 L 27.546875 -37.96875 Z M 10.234375 -37.96875 "/></g></g></g><g fill="#191919" fill-opacity="1"><g transform="translate(46.409991, 64.485063)"><g><path d="M 17.921875 -42.46875 C 22.546875 -42.46875 26.550781 -41.601562 29.9375 -39.875 C 33.332031 -38.15625 35.9375 -35.691406 37.75 -32.484375 C 39.5625 -29.273438 40.46875 -25.492188 40.46875 -21.140625 C 40.46875 -16.796875 39.5625 -13.03125 37.75 -9.84375 C 35.9375 -6.65625 33.332031 -4.21875 29.9375 -2.53125 C 26.550781 -0.84375 22.546875 0 17.921875 0 L 4.6875 0 L 4.6875 -42.46875 Z M 17.921875 -4.5625 C 23.398438 -4.5625 27.582031 -6.015625 30.46875 -8.921875 C 33.351562 -11.828125 34.796875 -15.898438 34.796875 -21.140625 C 34.796875 -26.421875 33.34375 -30.546875 30.4375 -33.515625 C 27.53125 -36.484375 23.359375 -37.96875 17.921875 -37.96875 L 10.234375 -37.96875 L 10.234375 -4.5625 Z M 17.921875 -4.5625 "/></g></g></g><g fill="#191919" fill-opacity="1"><g transform="translate(104.521924, 64.485063)"><g><path d="M 10.109375 -42.46875 L 10.109375 -15.59375 C 10.109375 -11.820312 11.03125 -9.019531 12.875 -7.1875 C 14.726562 -5.363281 17.300781 -4.453125 20.59375 -4.453125 C 23.84375 -4.453125 26.390625 -5.363281 28.234375 -7.1875 C 30.085938 -9.019531 31.015625 -11.820312 31.015625 -15.59375 L 31.015625 -42.46875 L 36.5625 -42.46875 L 36.5625 -15.65625 C 36.5625 -12.125 35.847656 -9.148438 34.421875 -6.734375 C 33.003906 -4.316406 31.085938 -2.519531 28.671875 -1.34375 C 26.253906 -0.164062 23.539062 0.421875 20.53125 0.421875 C 17.53125 0.421875 14.820312 -0.164062 12.40625 -1.34375 C 9.988281 -2.519531 8.078125 -4.316406 6.671875 -6.734375 C 5.265625 -9.148438 4.5625 -12.125 4.5625 -15.65625 L 4.5625 -42.46875 Z M 10.109375 -42.46875 "/></g></g></g><g fill="#191919" fill-opacity="1"><g transform="translate(160.685072, 64.485063)"><g><path d="M 2.625 -21.265625 C 2.625 -25.410156 3.554688 -29.140625 5.421875 -32.453125 C 7.285156 -35.765625 9.832031 -38.351562 13.0625 -40.21875 C 16.300781 -42.082031 19.890625 -43.015625 23.828125 -43.015625 C 28.453125 -43.015625 32.488281 -41.894531 35.9375 -39.65625 C 39.394531 -37.425781 41.921875 -34.257812 43.515625 -30.15625 L 36.859375 -30.15625 C 35.679688 -32.71875 33.984375 -34.6875 31.765625 -36.0625 C 29.554688 -37.445312 26.910156 -38.140625 23.828125 -38.140625 C 20.859375 -38.140625 18.195312 -37.445312 15.84375 -36.0625 C 13.488281 -34.6875 11.640625 -32.726562 10.296875 -30.1875 C 8.953125 -27.65625 8.28125 -24.679688 8.28125 -21.265625 C 8.28125 -17.890625 8.953125 -14.929688 10.296875 -12.390625 C 11.640625 -9.859375 13.488281 -7.898438 15.84375 -6.515625 C 18.195312 -5.140625 20.859375 -4.453125 23.828125 -4.453125 C 26.910156 -4.453125 29.554688 -5.128906 31.765625 -6.484375 C 33.984375 -7.847656 35.679688 -9.8125 36.859375 -12.375 L 43.515625 -12.375 C 41.921875 -8.3125 39.394531 -5.171875 35.9375 -2.953125 C 32.488281 -0.742188 28.453125 0.359375 23.828125 0.359375 C 19.890625 0.359375 16.300781 -0.5625 13.0625 -2.40625 C 9.832031 -4.25 7.285156 -6.816406 5.421875 -10.109375 C 3.554688 -13.398438 2.625 -17.117188 2.625 -21.265625 Z M 2.625 -21.265625 "/></g></g></g><g fill="#191919" fill-opacity="1"><g transform="translate(222.75548, 64.485063)"><g><path d="M 29.796875 -9.4375 L 11.265625 -9.4375 L 7.859375 0 L 2.015625 0 L 17.359375 -42.234375 L 23.765625 -42.234375 L 39.0625 0 L 33.203125 0 Z M 28.21875 -13.953125 L 20.53125 -35.40625 L 12.859375 -13.953125 Z M 28.21875 -13.953125 "/></g></g></g><g fill="#191919" fill-opacity="1"><g transform="translate(278.857723, 64.485063)"><g><path d="M 30.828125 -42.46875 L 30.828125 -37.96875 L 19.25 -37.96875 L 19.25 0 L 13.703125 0 L 13.703125 -37.96875 L 2.078125 -37.96875 L 2.078125 -42.46875 Z M 30.828125 -42.46875 "/></g></g></g><g fill="#191919" fill-opacity="1"><g transform="translate(326.860302, 64.485063)"><g><path d="M 10.234375 -42.46875 L 10.234375 0 L 4.6875 0 L 4.6875 -42.46875 Z M 10.234375 -42.46875 "/></g></g></g><g fill="#191919" fill-opacity="1"><g transform="translate(356.897536, 64.485063)"><g><path d="M 23.953125 0.421875 C 20.003906 0.421875 16.40625 -0.5 13.15625 -2.34375 C 9.90625 -4.195312 7.335938 -6.773438 5.453125 -10.078125 C 3.566406 -13.390625 2.625 -17.117188 2.625 -21.265625 C 2.625 -25.410156 3.566406 -29.140625 5.453125 -32.453125 C 7.335938 -35.765625 9.90625 -38.34375 13.15625 -40.1875 C 16.40625 -42.03125 20.003906 -42.953125 23.953125 -42.953125 C 27.929688 -42.953125 31.546875 -42.03125 34.796875 -40.1875 C 38.046875 -38.34375 40.601562 -35.773438 42.46875 -32.484375 C 44.34375 -29.191406 45.28125 -25.453125 45.28125 -21.265625 C 45.28125 -17.078125 44.34375 -13.335938 42.46875 -10.046875 C 40.601562 -6.765625 38.046875 -4.195312 34.796875 -2.34375 C 31.546875 -0.5 27.929688 0.421875 23.953125 0.421875 Z M 23.953125 -4.390625 C 26.910156 -4.390625 29.578125 -5.078125 31.953125 -6.453125 C 34.335938 -7.835938 36.207031 -9.804688 37.5625 -12.359375 C 38.925781 -14.921875 39.609375 -17.890625 39.609375 -21.265625 C 39.609375 -24.679688 38.925781 -27.65625 37.5625 -30.1875 C 36.207031 -32.726562 34.347656 -34.6875 31.984375 -36.0625 C 29.628906 -37.445312 26.953125 -38.140625 23.953125 -38.140625 C 20.941406 -38.140625 18.257812 -37.445312 15.90625 -36.0625 C 13.550781 -34.6875 11.691406 -32.726562 10.328125 -30.1875 C 8.960938 -27.65625 8.28125 -24.679688 8.28125 -21.265625 C 8.28125 -17.890625 8.960938 -14.921875 10.328125 -12.359375 C 11.691406 -9.804688 13.5625 -7.835938 15.9375 -6.453125 C 18.3125 -5.078125 20.984375 -4.390625 23.953125 -4.390625 Z M 23.953125 -4.390625 "/></g></g></g><g fill="#191919" fill-opacity="1"><g transform="translate(419.820498, 64.485063)"><g><path d="M 38.078125 0 L 32.546875 0 L 10.234375 -33.8125 L 10.234375 0 L 4.6875 0 L 4.6875 -42.53125 L 10.234375 -42.53125 L 32.546875 -8.78125 L 32.546875 -42.53125 L 38.078125 -42.53125 Z M 38.078125 0 "/></g></g></g></g></g></svg>